# AST/ASF file generated using VICON BodyLanguage
# -----------------------------------------------
:version 1.10
:name VICON
:units
  mass 1.0
  length 0.45
  angle deg
:documentation
   .ast/.asf automatically generated from VICON data using
   VICON BodyBuilder and BodyLanguage model FoxedUp or BRILLIANT.MOD
:root
   order TX TY TZ RX RY RZ
   axis XYZ
   position 0 0 0  
   orientation 0 0 0 
:bonedata
  begin
     id 1 
     name lhipjoint
     direction 0.710188 -0.616876 0.339259 
     length 2.5669 
     axis 0 0 0  XYZ
  end
  begin
     id 2 
     name lfemur
     direction 0.34202 -0.939693 0  
     length 7.12796  
     axis 0 0 20  XYZ
    dof rx ry rz
    limits (-160.0 20.0)
           (-70.0 70.0)
           (-60.0 70.0)
  end
  begin
     id 3 
     name ltibia
     direction 0.34202 -0.939693 0   
     length 7.58108   
     axis 0 0 20   XYZ
    dof rx
    limits (-10.0 170.0)
  end
  begin
     id 4 
     name lfoot
     direction 0.0669471 -0.183936 0.980656   
     length 2.17365   
     axis -90 7.62852e-016 20   XYZ
    dof rx rz
    limits (-45.0 90.0)
           (-70.0 20.0)
  end
  begin
     id 5 
     name ltoes
     direction 1.53508e-011 -4.21705e-011 1   
     length 1.09427   
     axis -90 7.62852e-016 20   XYZ
    dof rx
    limits (-90.0 20.0)
  end
  begin
     id 6 
     name rhipjoint
     direction -0.700191 -0.625589 0.34405   
     length 2.53115  
     axis 0 0 0  XYZ 
  end
  begin
     id 7 
     name rfemur
     direction -0.34202 -0.939693 0   
     length 7.33006   
     axis 0 0 -20   XYZ
    dof rx ry rz
    limits (-160.0 20.0)
           (-70.0 70.0)
           (-70.0 60.0)
  end
  begin
     id 8 
     name rtibia
     direction -0.34202 -0.939693 0   
     length 7.64926   
     axis 0 0 -20   XYZ
    dof rx
    limits (-10.0 170.0)
 end
 begin
     id 9 
     name rfoot
     direction -0.0688927 -0.189281 0.979503   
     length 2.20493  
     axis -90 -7.62852e-016 -20   XYZ
    dof rx rz
    limits (-45.0 90.0)
           (-20.0 70.0)
  end
  begin
     id 10 
     name rtoes
     direction -1.53567e-011 -4.21933e-011 1   
     length 1.10919   
     axis -90 -7.62852e-016 -20   XYZ
    dof rx
    limits (-90.0 20.0)
  end
  begin
     id 11 
     name lowerback
     direction -0.0167868 0.989873 -0.140959   
     length 2.14596   
     axis 0 0 0   XYZ
    dof rx ry rz
    limits (-20.0 45.0)
           (-30.0 30.0)
           (-30.0 30.0)
  end
  begin
     id 12 
     name upperback
     direction 0.0129109 0.998033 0.0613525   
     length 2.10457   
     axis 0 0 0   XYZ
    dof rx ry rz
    limits (-20.0 45.0)
           (-30.0 30.0)
           (-30.0 30.0)
  end
  begin
     id 13 
     name thorax
     direction 0.0177047 0.991119 0.131797   
     length 2.17652   
     axis 0 0 0   XYZ
    dof rx ry rz
    limits (-20.0 45.0)
           (-30.0 30.0)
           (-30.0 30.0)
  end
  begin
     id 14 
     name lowerneck
     direction -0.0336893 0.997548 0.0613464   
     length 1.8912   
     axis 0 0 0   XYZ
    dof rx ry rz
    limits (-20.0 45.0)
           (-30.0 30.0)
           (-30.0 30.0)
  end
  begin
     id 15 
     name upperneck
     direction 0.0435909 0.997179 -0.0611028   
     length 1.8829   
     axis 0 0 0   XYZ
    dof rx ry rz
    limits (-20.0 45.0)
           (-30.0 30.0)
           (-30.0 30.0)
  end
  begin
     id 16
     name head
     direction 0.0175076 0.999444 -0.0283782  
     length 1.93197  
     axis 0 0 0   XYZ
    dof rx ry rz
    limits (-20.0 45.0)
           (-30.0 30.0)
           (-30.0 30.0)
  end
  begin
     id 17 
     name lclavicle
     direction 0.919164 0.389875 0.0559876  
     length 3.60004  
     axis 0 0 0   XYZ
    dof ry rz
    limits (-20.0 10.0)
           (0.0 20.0)
  end
  begin
     id 18 
     name lhumerus
     direction 1 -4.48958e-011 6.89191e-027   
     length 5.43301   
     axis 180 -30 -90   XYZ
    dof rx ry rz
    limits (-60.0 90.0)
           (-90.0 90.0)
           (-90.0 90.0)
  end
  begin
     id 19
     name lradius
     direction 1 -4.4897e-011 3.24727e-027   
     length 3.15936   
     axis 180 -30 -90   XYZ
    dof rx
    limits (-10.0 170.0)
  end
  begin
     id 20
     name lwrist
     direction 1 -4.4897e-011 9.00228e-027   
     length 1.57968   
     axis -6.29373e-015 90 90   XYZ
    dof ry
    limits (-180.0 0.0)
 end
  begin
     id 21 
     name lhand
     direction 1 -4.48968e-011 1.80042e-026   
     length 0.712827   
     axis -1.14882e-014 90 90   XYZ
    dof rx rz
    limits (-90.0 90.0)
           (-45.0 45.0)
  end
  begin
     id 22 
     name lfingers
     direction 1 -4.49019e-011 3.60267e-026   
     length 0.574699   
     axis -2.29769e-014 90 90   XYZ
    dof rx
    limits (0.0 90.0)
  end
  begin
     id 23
     name lthumb
     direction 0.707107 -6.3498e-011 0.707107   
     length 0.825157   
     axis -90 45 5.37419e-014   XYZ
    dof rx rz
    limits (-45.0 45.0)
           (-45.0 45.0)
  end
  begin
     id 24 
     name rclavicle
     direction -0.890334 0.455305 -0.00132111   
     length 3.51494  
     axis 0 0 0   XYZ 
    dof ry rz
    limits (-10.0 20.0)
           (-20.0 0.0)
  end
  begin
     id 25 
     name rhumerus
     direction -1 -4.48967e-011 5.07175e-028  
     length 5.34194   
     axis 180 30 90   XYZ
    dof rx ry rz
    limits (-90.0 60.0)
           (-90.0 90.0)
           (-90.0 90.0)
  end
  begin
     id 26 
     name rradius
     direction -1 -4.48955e-011 3.30467e-027   
     length 3.19351   
     axis 180 30 90   XYZ
    dof rx
    limits (-10.0 170.0)
  end
  begin
     id 27 
     name rwrist
     direction -1 -4.48968e-011 9.00208e-027   
     length 1.59676   
     axis -6.29373e-015 -90 -90   XYZ
    dof ry
    limits (-180.0 0.0)
  end
  begin
     id 28
     name rhand
     direction -1 -4.49e-011 1.80099e-026   
     length 0.743862   
     axis -1.14882e-014 -90 -90   XYZ
    dof rx rz
    limits (-90.0 90.0)
           (-45.0 45.0)
  end
  begin
     id 29
     name rfingers
     direction -1 -4.49009e-011 3.6023e-026   
     length 0.599721   
     axis -2.29769e-014 -90 -90   XYZ
    dof rx
    limits (0.0 90.0)
  end
  begin
     id 30
     name rthumb
     direction -0.707107 -6.35025e-011 0.707107   
     length 0.861083   
     axis -90 -45 -5.37419e-014   XYZ
    dof rx rz
    limits (-45.0 45.0)
           (-45.0 45.0)
  end
:hierarchy
  begin
    root lhipjoint rhipjoint lowerback
    lhipjoint lfemur
    lfemur ltibia
    ltibia lfoot
    lfoot ltoes
    rhipjoint rfemur
    rfemur rtibia
    rtibia rfoot
    rfoot rtoes
    lowerback upperback
    upperback thorax
    thorax lowerneck lclavicle rclavicle
    lowerneck upperneck
    upperneck head
    lclavicle lhumerus
    lhumerus lradius
    lradius lwrist
    lwrist lhand lthumb
    lhand lfingers
    rclavicle rhumerus
    rhumerus rradius
    rradius rwrist
    rwrist rhand rthumb
    rhand rfingers
  end

#!OML:ASF H:\Martial Arts Walks\Project 1\Capture day 1\Session 1\male.ASF
:FULLY-SPECIFIED
:DEGREES
86
root -1.49861 14.3974 -34.2876 6.20783 -27.8591 -9.029
lowerback 11.3091 3.95403 1.48081
upperback -0.354352 5.59623 2.1021
thorax -6.78104 2.71947 0.432037
lowerneck -2.05333 -7.74813 -8.7222
upperneck 9.84132 -10.7058 7.47388
head 4.14685 -5.30201 3.16893
rclavicle -6.21202e-015 5.56597e-015
rhumerus -34.2311 14.9447 -83.5467
rradius 39.2223
rwrist 10.0437
rhand -7.48302 -40.6773
rfingers 7.12502
rthumb 18.4062 -69.8265
lclavicle -6.21202e-015 5.56597e-015
lhumerus -23.9807 7.28354 78.7028
lradius 26.5049
lwrist -20.2882
lhand -25.705 24.2659
lfingers 7.12502
lthumb 0.830655 54.2441
rfemur 12.3187 -5.53465 10.0202
rtibia 36.082
rfoot -29.2925 -27.8747
rtoes -25.3102
lfemur -57.4138 32.1469 -11.3489
ltibia 75.9457
lfoot -16.5141 1.82778
ltoes 4.14771
87
root -1.49677 14.3939 -34.2894 6.2278 -27.8855 -9.06095
lowerback 11.3416 3.9731 1.50374
upperback -0.343485 5.62583 2.11411
thorax -6.78701 2.73311 0.424998
lowerneck -2.17153 -7.44181 -8.48498
upperneck 9.86161 -10.2858 7.3748
head 4.11986 -5.08829 3.1256
rclavicle 6.85807e-014 2.66371e-014
rhumerus -34.2025 14.9442 -83.5532
rradius 39.2111
rwrist 10.0245
rhand -7.68063 -40.516
rfingers 7.12502
rthumb 18.2161 -69.683
lclavicle 6.85807e-014 2.66371e-014
lhumerus -23.9546 7.27466 78.6973
lradius 26.5273
lwrist -20.2574
lhand -25.681 24.2157
lfingers 7.12502
lthumb 0.853863 54.1938
rfemur 12.2875 -5.50249 10.0418
rtibia 36.1121
rfoot -29.3257 -27.869
rtoes -25.48
lfemur -57.4257 32.1659 -11.3079
ltibia 75.9654
lfoot -16.5282 1.80163
ltoes 4.02474
88
root -1.49497 14.3937 -34.2893 6.21294 -27.8825 -9.03464
lowerback 11.3821 3.98322 1.50855
upperback -0.34149 5.64029 2.10479
thorax -6.80637 2.7394 0.407276
lowerneck -2.25213 -7.15688 -8.21541
upperneck 9.84839 -9.89639 7.25855
head 4.07791 -4.89016 3.07125
rclavicle 1.08338e-013 7.95139e-015
rhumerus -34.2217 14.938 -83.5568
rradius 39.2378
rwrist 10.0163
rhand -7.74849 -40.4601
rfingers 7.12502
rthumb 18.1508 -69.6332
lclavicle 1.08338e-013 7.95139e-015
lhumerus -23.9519 7.21739 78.7007
lradius 26.5707
lwrist -20.195
lhand -25.7128 24.1849
lfingers 7.12502
lthumb 0.823119 54.163
rfemur 12.2845 -5.52147 9.99942
rtibia 36.1199
rfoot -29.2559 -27.9634
rtoes -25.6775
lfemur -57.419 32.1594 -11.3375
ltibia 75.9732
lfoot -16.5637 1.80328
ltoes 3.93358
89
root -1.49386 14.3906 -34.2919 6.23643 -27.8726 -9.04476
lowerback 11.4363 4.00186 1.5117
upperback -0.381661 5.66924 2.11253
thorax -6.88045 2.75241 0.40309
lowerneck -2.24065 -6.86285 -7.95566
upperneck 9.83047 -9.50016 7.13513
head 4.02038 -4.69142 3.01936
rclavicle -3.23025e-015 7.95139e-016
rhumerus -34.3442 14.9064 -83.5571
rradius 39.3195
rwrist 10.0581
rhand -7.75046 -40.3813
rfingers 7.12502
rthumb 18.1489 -69.5546
lclavicle -3.23025e-015 7.95139e-016
lhumerus -23.9482 7.15127 78.7077
lradius 26.516
lwrist -20.186
lhand -25.7735 24.2263
lfingers 7.12502
lthumb 0.764499 54.2047
rfemur 12.2659 -5.49282 10.022
rtibia 36.1338
rfoot -29.3574 -27.9095
rtoes -25.5548
lfemur -57.4632 32.1488 -11.3354
ltibia 75.9974
lfoot -16.6001 1.77885
ltoes 3.90193
90
root -1.49288 14.389 -34.2912 6.25028 -27.8765 -9.03955
lowerback 11.4237 4.01809 1.53283
upperback -0.371578 5.69272 2.1104
thorax -6.86038 2.76338 0.386535
lowerneck -2.3597 -6.4373 -7.91819
upperneck 9.93917 -8.92369 7.12894
head 4.02582 -4.40336 3.0422
rclavicle 4.42296e-014 -6.75868e-015
rhumerus -34.3255 14.8804 -83.5462
rradius 39.3416
rwrist 10.0899
rhand -7.72128 -40.4366
rfingers 7.12502
rthumb 18.177 -69.6073
lclavicle 4.42296e-014 -6.75868e-015
lhumerus -23.9088 7.12318 78.7156
lradius 26.5045
lwrist -20.1977
lhand -25.8295 24.3615
lfingers 7.12502
lthumb 0.710443 54.34
rfemur 12.2606 -5.47498 10.0112
rtibia 36.1228
rfoot -29.3207 -27.9488
rtoes -25.7333
lfemur -57.4889 32.1429 -11.3506
ltibia 76.0146
lfoot -16.607 1.77514
ltoes 3.80665
